<?xml version="1.0" encoding="UTF-8" standalone="no"?>
<!-- Created with Inkscape (http://www.inkscape.org/) -->

<svg
   version="1.1"
   id="svg2"
   width="1440"
   height="1440"
   viewBox="0 0 1440 1440"
   sodipodi:docname="PACK LOGO(2).ai"
   xmlns:inkscape="http://www.inkscape.org/namespaces/inkscape"
   xmlns:sodipodi="http://sodipodi.sourceforge.net/DTD/sodipodi-0.dtd"
   xmlns="http://www.w3.org/2000/svg"
   xmlns:svg="http://www.w3.org/2000/svg">
  <defs
     id="defs6">
    <clipPath
       clipPathUnits="userSpaceOnUse"
       id="clipPath16">
      <path
         d="M 0,1080 H 1080 V 0 H 0 Z"
         id="path14" />
    </clipPath>
  </defs>
  <sodipodi:namedview
     id="namedview4"
     pagecolor="#ffffff"
     bordercolor="#000000"
     borderopacity="0.25"
     inkscape:showpageshadow="2"
     inkscape:pageopacity="0.0"
     inkscape:pagecheckerboard="0"
     inkscape:deskcolor="#d1d1d1" />
  <g
     id="g8"
     inkscape:groupmode="layer"
     inkscape:label="PACK LOGO(2)"
     transform="matrix(1.3333333,0,0,-1.3333333,0,1440)">
    <g
       id="g10">
      <g
         id="g12"
         clip-path="url(#clipPath16)">
        <g
           id="g18"
           transform="translate(450.0879,470.4328)">
          <path
             d="m 0,0 c 8.104,-18.028 3.636,-28.177 -15.481,-35.179 -24.538,7.637 -45.05,22.216 -63.178,39.611 -66.589,63.893 -88.895,140.989 -66.319,230.696 3.471,13.792 14.037,20.775 25.323,17.782 12.37,-3.28 18.04,-14.117 14.191,-28.329 -9.451,-34.89 -9.354,-69.64 1.334,-106.893 5.529,16.152 12.927,28.669 26.899,35.775 14.03,7.136 28.275,8.368 43.068,2.27 C -12.687,146.879 0.03,125.85 -2.921,102.492 -5.007,85.974 -13.813,73.694 -27.904,64.735 -41.763,55.925 -57.06,58.94 -73.412,59.116 -56.132,36.934 -36.242,20.479 -12.951,7.978 -8.492,5.584 -4.31,2.673 0,0"
             style="fill:#ffffff;fill-opacity:1;fill-rule:nonzero;stroke:none"
             id="path20" />
        </g>
        <g
           id="g22"
           transform="translate(534.2603,725.3099)">
          <path
             d="m 0,0 c -4.713,9.287 -7.234,18.565 -10.615,27.493 -3.749,9.902 0.446,14.977 7.863,18.34 4.48,2.031 8.337,9.613 12.457,6.456 6.312,-4.838 11.262,-12.008 14.418,-19.732 0.674,-1.649 0.123,-4.912 -1.124,-6.052 C 14.52,18.753 10.096,7.552 0,0"
             style="fill:#ffffff;fill-opacity:1;fill-rule:nonzero;stroke:none"
             id="path24" />
        </g>
        <g
           id="g26"
           transform="translate(434.9448,681.2169)">
          <path
             d="m 0,0 c -11.531,-1.519 -22.038,-0.171 -32.46,0.631 -7.655,0.589 -13.745,12.149 -13.69,23.794 0.04,8.356 6.682,6.466 11.49,7.593 16.07,3.765 15.996,3.768 23.347,-10.994 1.743,-3.499 4.231,-6.62 6.118,-10.057 C -3.487,7.854 -2.132,4.547 0,0"
             style="fill:#ffffff;fill-opacity:1;fill-rule:nonzero;stroke:none"
             id="path28" />
        </g>
        <g
           id="g30"
           transform="translate(495.9608,723.8156)">
          <path
             d="m 0,0 c -7.676,8.476 -14.145,16.473 -21.535,23.502 -5.573,5.301 -4.413,9.996 -0.94,15.237 2.334,3.521 4.842,6.938 7.449,10.263 1.055,1.346 2.64,3.366 3.884,3.296 C -3.073,51.849 1.591,45.141 7.802,41.246 12.572,38.255 10.889,33.655 9.588,29.517 6.691,20.306 3.633,11.146 0,0"
             style="fill:#ffffff;fill-opacity:1;fill-rule:nonzero;stroke:none"
             id="path32" />
        </g>
        <g
           id="g34"
           transform="translate(648.0181,623.9116)">
          <path
             d="m 0,0 c 7.915,-0.428 9.868,-6.012 11.93,-10.565 2.074,-4.581 12.089,-7.756 4.252,-14.568 -15.752,-13.691 -18.859,-14.111 -29.183,-5.3 -5.404,4.611 -10.234,9.847 -16.476,13.492 -2.65,1.547 -4.756,5.206 -0.973,6.711 C -20.183,-6.146 -9.497,-3.114 0,0"
             style="fill:#ffffff;fill-opacity:1;fill-rule:nonzero;stroke:none"
             id="path36" />
        </g>
        <g
           id="g38"
           transform="translate(650.4714,639.0657)">
          <path
             d="m 0,0 c -11.515,2.873 -21.043,4.871 -30.306,7.73 -4.24,1.309 -6.969,4.024 -1.646,8.484 7.06,5.915 13.444,12.631 20.287,18.817 3.13,2.83 6.678,2.371 10.03,0.068 2.96,-2.034 5.691,-4.529 8.886,-6.067 8.531,-4.107 9.498,-9.385 2.816,-15.857 C 5.856,9.095 6.291,0.54 0,0"
             style="fill:#ffffff;fill-opacity:1;fill-rule:nonzero;stroke:none"
             id="path40" />
        </g>
        <g
           id="g42"
           transform="translate(608.66,684.9659)">
          <path
             d="m 0,0 c -3.397,0.298 -7.51,-1.57 -9.482,1.218 -2.146,3.035 1.184,5.826 2.752,8.654 3.307,5.965 6.862,11.954 8.966,18.376 1.893,5.78 5.087,7.325 10.487,6.731 C 19.791,34.201 28.868,36.201 32.5,29.01 36.251,21.582 28.974,13.93 28.658,5.944 28.576,3.865 25.91,3.475 24.254,3.594 19.797,3.917 15.863,2.12 11.694,1.238 7.807,0.416 3.756,0.367 0,0"
             style="fill:#ffffff;fill-opacity:1;fill-rule:nonzero;stroke:none"
             id="path44" />
        </g>
        <g
           id="g46"
           transform="translate(462.2328,711.1949)">
          <path
             d="m 0,0 c -7.377,-3.714 -11.966,3.365 -18.038,4.769 -4.508,1.042 -8.132,4.315 -12.824,5.616 -4.645,1.289 -7.908,5.206 -5.833,11.005 0.245,0.685 0.435,1.403 0.77,2.043 2.803,5.357 -2.059,13.696 4.762,16.804 7.09,3.231 14.692,-1.925 22.313,-1.58 5.311,0.24 4.158,-4.921 5.056,-8.178 C -4.89,20.025 -3.571,9.872 0,0"
             style="fill:#ffffff;fill-opacity:1;fill-rule:nonzero;stroke:none"
             id="path48" />
        </g>
        <g
           id="g50"
           transform="translate(571.7745,712.9836)">
          <path
             d="m 0,0 c 0,11.663 0.036,22.753 -0.018,33.844 -0.022,4.363 3.663,5.363 6.413,6.207 5.137,1.576 10.549,2.376 15.9,3.1 4.221,0.571 6.745,-1.636 7.609,-5.87 1.136,-5.563 0.481,-11.46 3.672,-16.672 1.313,-2.145 -0.1,-3.979 -2.518,-4.996 C 20.56,11.196 11.905,3.127 0,0"
             style="fill:#ffffff;fill-opacity:1;fill-rule:nonzero;stroke:none"
             id="path52" />
        </g>
        <g
           id="g54"
           transform="translate(571.6771,773.9875)">
          <path
             d="m 0,0 c -3.018,20.437 -5.718,39.127 -8.581,57.793 -0.661,4.31 0.832,6.61 4.856,8.315 9.681,4.1 19.293,8.404 28.691,13.108 4.522,2.263 6.637,0.959 8.025,-3.288 0.113,-0.346 0.229,-0.694 0.377,-1.026 C 38.219,64.005 47.829,52.517 46.566,42.385 45.351,32.641 30.649,26.794 22.055,19.03 15.326,12.952 8.332,7.167 0,0"
             style="fill:#a4ca57;fill-opacity:1;fill-rule:nonzero;stroke:none"
             id="path56" />
        </g>
        <g
           id="g58"
           transform="translate(672.1169,634.5769)">
          <path
             d="m 0,0 c 18.205,10.851 34.99,20.66 51.528,30.869 3.587,2.214 5.141,0.435 7.279,-1.57 C 66.767,21.833 74.657,14.287 82.798,7.023 85.974,4.19 86.213,1.952 83.29,-1.111 75.503,-9.268 67.857,-17.56 60.154,-25.798 58.306,-27.775 56.588,-28.9 53.57,-27.332 36.311,-18.369 18.936,-9.629 0,0"
             style="fill:#a4ca57;fill-opacity:1;fill-rule:nonzero;stroke:none"
             id="path60" />
        </g>
        <g
           id="g62"
           transform="translate(453.2693,769.9334)">
          <path
             d="m 0,0 c -16.659,12.386 -32.24,24.055 -47.93,35.575 -3.653,2.682 -2.276,5.711 -1.173,8.725 3.484,9.526 7.333,18.925 10.584,28.528 1.878,5.548 4.583,5.968 9.604,3.82 C -18.274,72.095 -4.135,70.936 2.53,63.187 9.468,55.121 2.237,41.13 2.383,29.659 2.502,20.362 0.957,11.045 0,0"
             style="fill:#a4ca57;fill-opacity:1;fill-rule:nonzero;stroke:none"
             id="path64" />
        </g>
        <g
           id="g66"
           transform="translate(658.0406,693.2488)">
          <path
             d="m 0,0 c 12.547,16.727 23.983,31.666 35.013,46.899 2.709,3.74 4.983,4.148 9.011,2.511 9.709,-3.944 19.529,-7.654 29.467,-10.971 4.517,-1.508 5.631,-3.577 3.921,-7.917 C 73.438,20.432 69.424,10.342 65.962,0.07 64.351,-4.708 61.204,-4.522 57.498,-4.246 39.074,-2.874 20.648,-1.522 0,0"
             style="fill:#a4ca57;fill-opacity:1;fill-rule:nonzero;stroke:none"
             id="path68" />
        </g>
        <g
           id="g70"
           transform="translate(663.4076,575.0126)">
          <path
             d="m 0,0 c 19.351,2.939 37.97,5.664 56.544,8.663 4.291,0.693 6.512,-0.319 8.257,-4.538 4.016,-9.71 8.365,-19.313 13.167,-28.656 2.588,-5.035 1.056,-7.099 -3.606,-8.869 -4.734,-1.797 -9.251,-4.161 -13.884,-6.229 C 40.331,-48.62 40.333,-48.61 25.817,-31.497 17.819,-22.069 9.797,-12.661 1.807,-3.226 1.361,-2.699 1.111,-2.005 0,0"
             style="fill:#a4ca57;fill-opacity:1;fill-rule:nonzero;stroke:none"
             id="path72" />
        </g>
        <g
           id="g74"
           transform="translate(512.0901,783.6008)">
          <path
             d="m 0,0 c -10.637,17.878 -20.359,34.472 -30.399,50.871 -1.938,3.166 -1.765,5.24 0.798,7.517 0.543,0.482 0.994,1.064 1.503,1.586 8.564,8.795 16.011,25.079 25.7,24.56 9.487,-0.508 18.18,-15.189 27.309,-23.553 2.29,-2.098 4.063,-3.823 2.255,-7.341 C 18.228,36.246 9.476,18.757 0,0"
             style="fill:#a4ca57;fill-opacity:1;fill-rule:nonzero;stroke:none"
             id="path76" />
        </g>
        <g
           id="g78"
           transform="translate(404.5437,734.4876)">
          <path
             d="m 0,0 c -20.25,5.083 -38.723,9.747 -57.214,14.34 -3.684,0.916 -5.134,2.855 -5.183,6.855 -0.129,10.531 -0.603,21.07 -1.346,31.577 -0.379,5.351 1.648,7.032 6.792,6.931 7.983,-0.158 16.186,-0.811 23.92,0.686 11.36,2.2 14.856,-2.961 17.494,-12.837 C -11.39,32.021 -5.626,16.923 0,0"
             style="fill:#a4ca57;fill-opacity:1;fill-rule:nonzero;stroke:none"
             id="path80" />
        </g>
        <g
           id="g82"
           transform="translate(622.8329,742.2314)">
          <path
             d="m 0,0 c 5.262,20.48 10.1,38.333 14.315,56.332 1.2,5.121 3.703,6.267 8.307,6.276 10.195,0.018 20.397,0.218 30.579,0.711 4.431,0.215 7.153,-0.577 6.617,-5.723 -0.112,-1.073 0.142,-2.18 0.151,-3.272 C 60.058,43.065 63.933,29.636 59.108,21.174 54.562,13.2 39.842,13.305 29.624,9.787 20.466,6.634 11.232,3.7 0,0"
             style="fill:#a4ca57;fill-opacity:1;fill-rule:nonzero;stroke:none"
             id="path84" />
        </g>
        <g
           id="g86"
           transform="translate(677.2488,516.7952)">
          <path
             d="m 0,0 c -8.318,2.795 -15.082,2.035 -21.528,-4.792 -15.975,-16.923 -34.486,-30.317 -57.236,-38.252 8.807,15.837 10.741,32.648 7.851,49.481 -3.061,17.824 -13.423,32.025 -29.079,41.001 -26.702,15.309 -57.321,11.347 -79.234,-10.331 -9.72,-9.616 -15.7,-21.304 -17.422,-34.748 -2.992,-23.359 5.718,-42.984 21.557,-59.877 -1.264,-0.894 -2.44,-1.338 -3.557,-1.51 -2.006,0.283 -3.995,0.608 -5.965,0.979 -0.818,0.265 -1.631,0.514 -2.453,0.654 -9.184,1.563 -17.704,5.519 -26.552,8.269 -6.84,2.934 -13.488,6.37 -19.977,10.246 -8.061,4.815 -14.777,3.705 -22.019,-1.25 -11.667,-7.981 -10.371,-30.723 4.208,-37.925 4.201,-2.075 8.438,-4.036 12.711,-5.895 10.644,-6.152 22.361,-9.931 34.073,-12.311 2.46,-0.715 4.931,-1.403 7.416,-2.053 l 0.488,0.641 c 0.102,-0.016 0.204,-0.034 0.306,-0.049 54.507,-8.344 107.36,-2.812 156.052,25.833 16.707,9.829 32.216,21.226 46.636,34.25 C 18.343,-26.739 13.399,-4.503 0,0"
             style="fill:#a4ca57;fill-opacity:1;fill-rule:nonzero;stroke:none"
             id="path88" />
        </g>
      </g>
    </g>
  </g>
</svg>
